<svg width="32" height="33" viewBox="0 0 32 33" fill="none" xmlns="http://www.w3.org/2000/svg">
<path d="M16.2535 3.31229C16.2521 2.69956 16.1668 2.08991 16 1.50024C24.2804 1.50933 30.9906 8.23321 30.9999 16.5002C31.0268 24.771 24.2841 31.4727 16 31.4997C7.71575 31.5265 1.02692 24.7718 1 16.501C2.8528 16.894 4.78396 16.497 6.24982 15.2994C7.76032 14.0755 8.63148 12.2325 8.61698 10.2903C8.61596 9.85347 8.57681 9.41809 8.49998 8.98802C10.1964 9.66062 12.1174 9.44037 13.618 8.40293C15.2826 7.24251 16.2683 5.33923 16.2535 3.31229Z" fill="#A36641" stroke="#503423" stroke-width="2" stroke-linecap="round" stroke-linejoin="round"/>
<path d="M1.0039 8.17087V8.16687H1V8.17077L1.0039 8.17087Z" fill="#A36641" stroke="#503423" stroke-width="2" stroke-linecap="round" stroke-linejoin="round"/>
<path d="M9.33727 1.50424V1.50024H9.33337V1.50414L9.33727 1.50424Z" fill="#A36641" stroke="#503423" stroke-width="2" stroke-linecap="round" stroke-linejoin="round"/>
<path d="M2.67053 1.50424V1.50024H2.66663V1.50414L2.67053 1.50424Z" fill="#A36641" stroke="#503423" stroke-width="2" stroke-linecap="round" stroke-linejoin="round"/>
<path d="M12.6706 24.8375V24.8335H12.6666V24.8375H12.6706Z" fill="#A36641" stroke="#503423" stroke-width="2" stroke-linecap="round" stroke-linejoin="round"/>
<path d="M21.0039 21.5042V21.5002H20.9999V21.5042H21.0039Z" fill="#A36641" stroke="#503423" stroke-width="2" stroke-linecap="round" stroke-linejoin="round"/>
<path d="M14.3374 16.5042V16.5002H14.3334V16.5042H14.3374Z" fill="#A36641" stroke="#503423" stroke-width="2" stroke-linecap="round" stroke-linejoin="round"/>
<path d="M22.6705 13.1709V13.1669H22.6665V13.1709H22.6705Z" fill="#A36641" stroke="#503423" stroke-width="2" stroke-linecap="round" stroke-linejoin="round"/>
<path d="M1.0039 8.17087V8.16687H1V8.17077L1.0039 8.17087Z" fill="#A36641" stroke="#503423" stroke-width="2" stroke-linecap="round" stroke-linejoin="round"/>
<path d="M9.33727 1.50424V1.50024H9.33337V1.50414L9.33727 1.50424Z" fill="#A36641" stroke="#503423" stroke-width="2" stroke-linecap="round" stroke-linejoin="round"/>
<path d="M2.67053 1.50424V1.50024H2.66663V1.50414L2.67053 1.50424Z" fill="#A36641" stroke="#503423" stroke-width="2" stroke-linecap="round" stroke-linejoin="round"/>
</svg>
